PathFileType	4	(X/Y/Z)	D:\Temporary Files\修改scale文件\BD0001.trc
DataRate	CameraRate	NumFrames	NumMarkers	Units	OrigDataRate	OrigDataStartFrame	OrigNumFrames
200.000000	200.000000	4	38	mm	200.000000	502	804
Frame#	Time	Top.Head			L.Acromium			R.Acromium			Sternum			L.ASIS			R.ASIS			V.Sacral			R.Knee.Lat			R.Knee.Med			L.Knee.Lat			L.Knee.Med			L.Ankle.Lat			L.Toe.Tip			R.Heel			R.Ankle.Med			R.Ankle.Lat			L.Toe.Med			L.Toe.Lat			L.Heel			L.Ankle.Med			L.Shank1			L.Shank2			R.Toe.Tip			R.Toe.Med			R.Toe.Lat			L.PSIS			R.PSIS			R.iliac.crest			L.iliac.crest			L.Shank3			L.Shank4			R.Shank4			L.Thigh4			R.Thigh4			R.Heel.Lat			R.Heel.Med			L.Heel.Lat			L.Heel.Med			
		X1	Y1	Z1	X2	Y2	Z2	X3	Y3	Z3	X4	Y4	Z4	X5	Y5	Z5	X6	Y6	Z6	X7	Y7	Z7	X8	Y8	Z8	X9	Y9	Z9	X10	Y10	Z10	X11	Y11	Z11	X12	Y12	Z12	X13	Y13	Z13	X14	Y14	Z14	X15	Y15	Z15	X16	Y16	Z16	X17	Y17	Z17	X18	Y18	Z18	X19	Y19	Z19	X20	Y20	Z20	X21	Y21	Z21	X22	Y22	Z22	X23	Y23	Z23	X24	Y24	Z24	X25	Y25	Z25	X26	Y26	Z26	X27	Y27	Z27	X28	Y28	Z28	X29	Y29	Z29	X30	Y30	Z30	X31	Y31	Z31	X32	Y32	Z32	X33	Y33	Z33	X34	Y34	Z34	X35	Y35	Z35	X36	Y36	Z36	X37	Y37	Z37	X38	Y38	Z38	
503	2.51	927.564128878096	1692.8905614428	-993.806154915352	935.652623234362	1410.65986186977	-818.059642882046	1093.77582989181	1399.08582410597	-1090.64820605225	902.10986692181	1358.99259294536	-1019.47704403886	804.962595212963	912.192279643725	-931.477359038888	927.555854404709	931.703419714628	-1133.68542684087	1009.23595320617	964.219759287758	-952.842252546337	1003.5180711043	475.033350260862	-1165.44709521078	948.462895017463	454.628378119431	-1065.37713713802	849.336572078522	476.335165650598	-847.093307497026	886.151327863273	456.938924141258	-949.797712907762	907.048250724631	102.82426283711	-808.594813616428	726.958770673623	56.4721340685926	-869.008045889587	1104.92645147416	34.3114223601265	-1104.17063672703	990.232301961133	103.17309579893	-1115.24918203264	1060.68624462026	104.871161451212	-1173.92317859789	786.918766574461	45.3055382696299	-907.833100161773	793.474351017821	46.3685731836324	-802.782145312902	1001.36703166815	31.4550173613991	-814.54588145662	927.203451057246	104.587121146781	-894.481747551632	831.643363560312	388.327265112606	-836.672569782967	829.512276904891	307.683492601272	-819.055826279061	875.911349702261	54.6688261834719	-1277.33263120037	900.012308712955	44.5373263136103	-1205.3728188579	986.48016132551	37.4676985476824	-1275.01394889668	975.932569643652	963.066431989552	-910.08477960363	1030.44169831656	964.59405434184	-998.938602935383	970.701277728161	988.726639154693	-1122.37365414578	835.424114164881	989.669007169853	-899.224034603603	883.688082662468	395.979735307106	-801.077883079728	885.522488042864	309.840954738278	-784.691777437847	1062.43973722931	317.347596670808	-1187.15364126584	837.588389535477	605.236587404188	-832.579034939287	1031.24049508164	568.317389750712	-1148.85091349682	1098.28834480753	32.1581542707656	-1172.68955708685	1024.77921894318	25.2801279602416	-1100.9824328875	935.325967534744	22.3113818923072	-780.06230374211	956.494971924638	27.337316790196	-883.626028350435
504	2.515	927.558674073836	1692.89177436129	-993.777980773965	935.668222412968	1410.64930364143	-818.0504730473	1093.79008701467	1399.09170405623	-1090.63391331193	902.123552293683	1358.99857563908	-1019.46870577546	804.972679352645	912.188810502937	-931.483048427465	927.561830629303	931.701941389587	-1133.69154317438	1009.24365957461	964.224379331803	-952.851333255665	1003.52492218993	475.031178414121	-1165.45242730064	948.46928938162	454.62615073967	-1065.37989398253	849.323659363318	476.331640295389	-847.123780197393	886.156573238987	456.941151921799	-949.799624317492	907.063759670006	102.851233728897	-808.578072071242	726.957124978266	56.4664081935256	-869.010157977689	1104.92488481174	34.3082046989289	-1104.17269759794	990.23178818986	103.171920048621	-1115.25094613785	1060.67758280906	104.881591937747	-1173.92837254888	786.916936177528	45.3032392566534	-907.835980549394	793.47260856308	46.3656630068133	-802.78239753223	1001.36196024545	31.4481714466096	-814.546949523522	927.198504608625	104.583683650737	-894.482165644368	831.535572007949	388.317669326769	-836.832207186452	829.513560864727	307.681763515312	-819.057775466681	875.910208295	54.6652704303788	-1277.33220233796	900.006422301775	44.5368755649029	-1205.37308057055	986.479665250759	37.4639168476307	-1275.0159047065	975.937486456151	963.069965472949	-910.090923327359	1030.44698685026	964.594135048284	-998.944301897066	970.701068160699	988.726081699663	-1122.38128291551	835.428606984343	989.66454732864	-899.237276783422	883.68999941251	395.980361595923	-801.081992698478	885.525613920677	309.836771502537	-784.693740429297	1062.44187413847	317.349442359813	-1187.15762557346	837.56361802037	605.288859775834	-832.571587181647	1031.24751537303	568.319708040236	-1148.86034923637	1098.28626296011	32.1575970256096	-1172.69094748211	1024.78251561194	25.2750383120309	-1100.98169272138	935.323800338273	22.3069884686447	-780.062683408571	956.494547535629	27.3356475421269	-883.625225742895
505	2.52	927.553949297176	1692.89353758676	-993.749070955315	935.682900408535	1410.63970315515	-818.040989005115	1093.80386775456	1399.09648920182	-1090.62135046922	902.135640520651	1359.00498029973	-1019.46130252229	804.983842364098	912.184904845369	-931.488346313049	927.568733988636	931.701205398314	-1133.69801845014	1009.25166216104	964.226832575698	-952.859699904948	1003.53071919459	475.029041084199	-1165.4584175761	948.473786803617	454.62437352344	-1065.38354933709	849.282597606427	476.323682673036	-847.190712369365	886.161058617946	456.943049126688	-949.802899734507	907.081045934493	102.883811279588	-808.558578416108	726.954325719756	56.4606664250535	-869.012278174973	1104.92283112558	34.3062870257135	-1104.17538744231	990.231478957231	103.167563891581	-1115.2479780808	1060.6697771584	104.891761078261	-1173.93403208804	786.915851150583	45.3005263262379	-907.839164270294	793.470853506579	46.362869941332	-802.784210456327	1001.35934172048	31.4439764862857	-814.549805567738	927.194696743815	104.579686447349	-894.484396488186	831.455962924574	388.309114176575	-836.95031732732	829.512745901842	307.678569824848	-819.062362098552	875.909315816967	54.6611980868218	-1277.33144523325	900.001683918207	44.5361820993483	-1205.37385911783	986.479217216324	37.4604075644541	-1275.01816302406	975.942714827731	963.071110372038	-910.095041431449	1030.45118230252	964.594863722475	-998.950435490333	970.703025982645	988.726641239488	-1122.38959548356	835.435166992448	989.658763513	-899.24949848153	883.690934599158	395.979252223261	-801.088524582649	885.526754745766	309.832705425345	-784.696776934593	1062.44295341357	317.351170723227	-1187.16106716987	837.548906836017	605.324044680375	-832.574593665853	1031.25416535339	568.319897241703	-1148.86862396852	1098.28374656806	32.1560758891676	-1172.69028426817	1024.78575887834	25.2705902118476	-1100.98196355664	935.322497811527	22.3053409722044	-780.06129943443	956.495506204364	27.3311756571703	-883.621604659259
506	2.525	927.55039356399	1692.89574159953	-993.72005701566	935.696541285523	1410.63121048254	-818.03129999727	1093.81659590495	1399.10068641372	-1090.61114089681	902.145924829654	1359.01203220622	-1019.45452901211	804.996040775218	912.180909151441	-931.492835650895	927.576806429976	931.701583770679	-1133.70460539585	1009.26011721565	964.226911425176	-952.867107701002	1003.53569842369	475.027295711237	-1165.4647621369	948.475870059033	454.623739674713	-1065.38824964764	849.204619553563	476.310437975277	-847.303096006494	886.163468674575	456.944283417698	-949.807681435188	907.095449202281	102.913521706774	-808.541401078671	726.950696677852	56.4555661758418	-869.014336865073	1104.92079304253	34.3058270221228	-1104.17808535325	990.231870728831	103.161719225762	-1115.24223033522	1060.66401083313	104.8971753471	-1173.93953862738	786.914992286573	45.297453296053	-907.841541072846	793.469339474467	46.3605867774649	-802.787488811726	1001.35961425752	31.4428676243872	-814.553978080487	927.193417651286	104.574851314556	-894.487774524385	831.406380736079	388.302135171348	-837.0254590113	829.510683573541	307.674877832574	-819.069132745461	875.908518156227	54.6578944570791	-1277.33126891229	899.998762299244	44.5353064523174	-1205.3746410243	986.479653703715	37.4574087417746	-1275.02031519162	975.949707884466	963.06975262709	-910.097990197332	1030.454914224	964.596828886204	-998.956839752332	970.707690706099	988.728693973907	-1122.39815288984	835.443963011981	989.652890235411	-899.259644749706	883.691190141704	395.976996278809	-801.096592557387	885.526661802884	309.829116090643	-784.700858694795	1062.44377982401	317.352106062183	-1187.16385893102	837.541371174915	605.347635215099	-832.58444315357	1031.26106799899	568.317763839398	-1148.87550391603	1098.28173556262	32.1537529479048	-1172.68781238231	1024.78857646374	25.2669541546512	-1100.98330645863	935.32213842296	22.3060315675671	-780.058963151141	956.497338403485	27.3249084590924	-883.61640803175
